<?xml version="1.0" encoding="utf-8"?><svg viewBox="0 0 26 25" xmlns="http://www.w3.org/2000/svg" xmlns:xlink="http://www.w3.org/1999/xlink"><style>:root>svg{display:none}:root>svg:target{display:block}</style><svg viewBox="0 0 24 24" id="basket" xmlns="http://www.w3.org/2000/svg"><path d="M17 17H6.5l-2-14H2"/><path d="M4.786 5H21l-3 9H6.07M9 21a2 2 0 100-4 2 2 0 000 4zm8 0a2 2 0 100-4 2 2 0 000 4z"/></svg><svg viewBox="0 0 26 25" id="cursor-click" xmlns="http://www.w3.org/2000/svg"><path d="M9.875 2.5a.625.625 0 01.625.625v2.5a.625.625 0 11-1.25 0v-2.5a.625.625 0 01.625-.625zM5.013 4.513a.625.625 0 01.885 0L7.665 6.28a.625.625 0 11-.884.884L5.014 5.397a.625.625 0 010-.883l-.002-.002zm9.725 0a.625.625 0 010 .885l-1.77 1.767a.625.625 0 11-.884-.884l1.767-1.767a.625.625 0 01.884 0l.003-.002zM3 9.375a.625.625 0 01.625-.625h2.5a.625.625 0 010 1.25h-2.5A.625.625 0 013 9.375zm8.3-.25a1.25 1.25 0 00-2.05.959V21.46c0 1.155 1.431 1.692 2.191.824l2.533-2.895a1.874 1.874 0 011.411-.639h4.014c1.168 0 1.698-1.462.8-2.21L11.3 9.124v.001zm-.8 12.337V10.084l8.899 7.416h-4.014a3.124 3.124 0 00-2.352 1.067L10.5 21.462z"/></svg><svg viewBox="0 0 24 24" id="favorites" xmlns="http://www.w3.org/2000/svg"><path d="M4.331 12.047L12 20l7.669-7.953A4.804 4.804 0 0021 8.714C21 6.111 18.965 4 16.454 4a4.465 4.465 0 00-3.214 1.38L12 6.668 10.76 5.38A4.465 4.465 0 007.546 4C5.036 4 3 6.11 3 8.714c0 1.25.479 2.45 1.331 3.333z"/></svg><svg viewBox="0 0 24 24" id="search" xmlns="http://www.w3.org/2000/svg"><path d="M16 10.5a7.5 7.5 0 11-15 0 7.5 7.5 0 0115 0zm2 9.5l-4.197-4.197"/></svg><svg viewBox="0 0 24 24" id="user1" xmlns="http://www.w3.org/2000/svg"><path d="M14 15H6a4 4 0 00-4 4v2h16v-2a4 4 0 00-4-4zm-4-4a4 4 0 100-8 4 4 0 000 8z"/></svg></svg>